<?xml version="1.0" standalone="no"?>
<!DOCTYPE svg PUBLIC "-//W3C//DTD SVG 20010904//EN"
 "http://www.w3.org/TR/2001/REC-SVG-20010904/DTD/svg10.dtd">
<svg version="1.0" xmlns="http://www.w3.org/2000/svg"
 width="300.000000pt" height="300.000000pt" viewBox="0 0 300.000000 300.000000"
 preserveAspectRatio="xMidYMid meet">
<metadata>
Created by potrace 1.11, written by Peter Selinger 2001-2013
</metadata>
<g transform="translate(0.000000,300.000000) scale(0.100000,-0.100000)"
fill="#000000" stroke="none">
<path d="M0 1500 l0 -1500 1500 0 1500 0 0 1500 0 1500 -1500 0 -1500 0 0
-1500z m843 1132 c-8 -103 11 -145 76 -176 45 -21 59 -21 659 -24 l612 -3 0
-129 0 -130 -547 0 c-302 0 -591 5 -644 10 -159 15 -255 63 -313 154 -19 29
-40 72 -46 97 -14 49 -17 196 -6 247 l8 32 103 0 104 0 -6 -78z m339 -727 c44
-18 70 -114 49 -178 -19 -58 -62 -87 -128 -87 -66 0 -106 21 -128 66 -30 65
-10 170 39 196 46 25 113 26 168 3z m705 -18 c52 -51 47 -175 -9 -222 -25 -21
-40 -25 -95 -25 -60 0 -67 2 -98 33 -56 56 -56 164 0 217 47 44 156 43 202 -3z
m303 -753 c0 -188 -4 -262 -16 -317 -62 -279 -269 -437 -573 -437 -318 0 -525
149 -597 430 -12 49 -18 129 -21 318 l-5 252 606 0 606 0 0 -246z"/>
<path d="M1190 1068 c1 -163 36 -266 113 -334 66 -58 122 -76 257 -81 298 -13
420 94 420 369 l0 108 -395 0 -395 0 0 -62z"/>
</g>
</svg>
